<mxfile host="app.diagrams.net" modified="2021-07-28T06:11:38.317Z" agent="5.0 (Windows)" etag="hbe9jgOHkZ6MXEynRfu1" version="14.7.7" type="github">
  <diagram id="wsr0LFDBy0PhKWHUJlXE" name="Page-1">
    <mxGraphModel dx="1038" dy="508" grid="1" gridSize="10" guides="1" tooltips="1" connect="1" arrows="1" fold="1" page="1" pageScale="1" pageWidth="1169" pageHeight="827" math="0" shadow="0">
      <root>
        <mxCell id="0" />
        <mxCell id="1" parent="0" />
        <mxCell id="uodmGA-tUx9AFkoKoRxA-1" value="Transfers Process" style="swimlane;startSize=23;" vertex="1" parent="1">
          <mxGeometry x="50" y="20" width="990" height="640" as="geometry" />
        </mxCell>
        <mxCell id="uodmGA-tUx9AFkoKoRxA-2" value="Start" style="rounded=1;whiteSpace=wrap;html=1;" vertex="1" parent="uodmGA-tUx9AFkoKoRxA-1">
          <mxGeometry x="210" y="50" width="120" height="60" as="geometry" />
        </mxCell>
        <mxCell id="uodmGA-tUx9AFkoKoRxA-5" value="Fund Manager receives budget allocation from the Ministry" style="rounded=0;whiteSpace=wrap;html=1;" vertex="1" parent="uodmGA-tUx9AFkoKoRxA-1">
          <mxGeometry x="190" y="190" width="160" height="60" as="geometry" />
        </mxCell>
        <mxCell id="uodmGA-tUx9AFkoKoRxA-4" value="" style="edgeStyle=orthogonalEdgeStyle;rounded=0;orthogonalLoop=1;jettySize=auto;html=1;entryX=0.5;entryY=0;entryDx=0;entryDy=0;" edge="1" parent="uodmGA-tUx9AFkoKoRxA-1" source="uodmGA-tUx9AFkoKoRxA-2" target="uodmGA-tUx9AFkoKoRxA-5">
          <mxGeometry relative="1" as="geometry">
            <mxPoint x="270" y="190" as="targetPoint" />
          </mxGeometry>
        </mxCell>
        <mxCell id="uodmGA-tUx9AFkoKoRxA-9" value="" style="edgeStyle=orthogonalEdgeStyle;rounded=0;orthogonalLoop=1;jettySize=auto;html=1;" edge="1" parent="1" source="uodmGA-tUx9AFkoKoRxA-6" target="uodmGA-tUx9AFkoKoRxA-8">
          <mxGeometry relative="1" as="geometry" />
        </mxCell>
        <mxCell id="uodmGA-tUx9AFkoKoRxA-6" value="Fund Manager receives an AIE from the State Department for the Monthly/Quarterly/semi-annually for Recurrent &amp;amp; Development grants disbursement and instructs account to confirm disbursement " style="whiteSpace=wrap;html=1;rounded=0;" vertex="1" parent="1">
          <mxGeometry x="190" y="330" width="260" height="90" as="geometry" />
        </mxCell>
        <mxCell id="uodmGA-tUx9AFkoKoRxA-7" value="" style="edgeStyle=orthogonalEdgeStyle;rounded=0;orthogonalLoop=1;jettySize=auto;html=1;" edge="1" parent="1" source="uodmGA-tUx9AFkoKoRxA-5" target="uodmGA-tUx9AFkoKoRxA-6">
          <mxGeometry relative="1" as="geometry" />
        </mxCell>
        <mxCell id="uodmGA-tUx9AFkoKoRxA-8" value="FA confirms disbursement" style="rhombus;whiteSpace=wrap;html=1;rounded=0;" vertex="1" parent="1">
          <mxGeometry x="250" y="505" width="140" height="80" as="geometry" />
        </mxCell>
      </root>
    </mxGraphModel>
  </diagram>
</mxfile>
